<svg xmlns="http://www.w3.org/2000/svg" xmlns:xlink="http://www.w3.org/1999/xlink" version="1.1" width="256" height="256" viewBox="0 0 256 256" xml:space="preserve">

<defs>
</defs>
<g style="stroke: none; stroke-width: 0; stroke-dasharray: none; stroke-linecap: butt; stroke-linejoin: miter; stroke-miterlimit: 10; fill: none; fill-rule: nonzero; opacity: 1;" transform="translate(1.4065934065934016 1.4065934065934016) scale(2.81 2.81)" >
	<path d="M 79.199 45 c 0 -2.017 -0.185 -3.99 -0.52 -5.912 l 10.238 -8.021 l -9.893 -17.135 l -12.065 4.856 c -3.016 -2.53 -6.473 -4.552 -10.242 -5.926 L 54.893 0 H 35.107 l -1.825 12.862 c -3.769 1.375 -7.225 3.397 -10.242 5.926 l -12.065 -4.856 L 1.083 31.067 l 10.238 8.021 c -0.335 1.921 -0.52 3.894 -0.52 5.912 s 0.185 3.99 0.52 5.912 L 1.083 58.933 l 9.893 17.135 l 12.065 -4.856 c 3.016 2.53 6.473 4.552 10.242 5.926 L 35.107 90 h 19.785 l 1.825 -12.862 c 3.769 -1.375 7.225 -3.397 10.242 -5.926 l 12.065 4.856 l 9.893 -17.135 l -10.238 -8.021 C 79.014 48.99 79.199 47.017 79.199 45 z M 45 66.659 c -11.962 0 -21.659 -9.697 -21.659 -21.659 S 33.038 23.341 45 23.341 S 66.659 33.038 66.659 45 S 56.962 66.659 45 66.659 z" style="stroke: none; stroke-width: 1; stroke-dasharray: none; stroke-linecap: butt; stroke-linejoin: miter; stroke-miterlimit: 10; fill: rgb(255,105,46); fill-rule: nonzero; opacity: 1;" transform=" matrix(1 0 0 1 0 0) " stroke-linecap="round" />
</g>
</svg>